<?xml version="1.0" encoding="UTF-8"?>
<!-- Generator: Adobe Illustrator 16.0.0, SVG Export Plug-In . SVG Version: 6.00 Build 0)  -->
<!DOCTYPE svg PUBLIC "-//W3C//DTD SVG 1.1 Tiny//EN" "http://www.w3.org/Graphics/SVG/1.1/DTD/svg11-tiny.dtd">
<svg version="1.1" baseProfile="tiny" id="Calque_1" xmlns="http://www.w3.org/2000/svg" xmlns:xlink="http://www.w3.org/1999/xlink" x="0px" y="0px" width="677px" height="861px" viewBox="0 0 677 861" xml:space="preserve">
<rect x="7" y="200" fill="#F0F7FF" width="663" height="460"/>
<rect x="7" y="200" fill="none" stroke="#3463AE" stroke-linecap="square" stroke-miterlimit="3" width="663" height="460"/>
<g>
	<path fill="#3463AE" d="M610.797,625.883h-2.566l-0.445-2.344c-0.297-0.188-0.73-0.352-1.301-0.492s-1.176-0.211-1.816-0.211   c-0.938,0-1.662,0.197-2.174,0.592s-0.768,0.904-0.768,1.529c0,0.578,0.268,1.053,0.803,1.424s1.459,0.764,2.771,1.178   c1.883,0.523,3.311,1.215,4.283,2.074s1.459,1.988,1.459,3.387c0,1.461-0.578,2.613-1.734,3.457s-2.68,1.266-4.57,1.266   c-1.352,0-2.572-0.215-3.662-0.645s-1.998-1.023-2.725-1.781v-3.563H601l0.363,2.426c0.344,0.281,0.811,0.514,1.4,0.697   s1.248,0.275,1.975,0.275c0.938,0,1.65-0.191,2.139-0.574s0.732-0.895,0.732-1.535c0-0.656-0.232-1.184-0.697-1.582   s-1.279-0.773-2.443-1.125c-2.023-0.586-3.555-1.281-4.594-2.086s-1.559-1.906-1.559-3.305c0-1.383,0.586-2.514,1.758-3.393   s2.645-1.33,4.418-1.354c1.313,0,2.508,0.199,3.586,0.598s1.984,0.93,2.719,1.594V625.883z"/>
	<path fill="#3463AE" d="M612.215,635.445l1.219-0.176l5.191-14.836h3.504l5.156,14.836l1.219,0.176v2.051h-5.813v-2.051   l1.184-0.211l-0.75-2.344h-5.531l-0.75,2.344l1.184,0.211v2.051h-5.813V635.445z M618.402,630.371h3.914l-1.922-6.012h-0.07   L618.402,630.371z"/>
	<path fill="#3463AE" d="M646.094,624.875l-0.07-0.012l-4.57,12.633h-2.297l-4.547-12.586l-0.07,0.012l0.328,7.488v2.684   l1.828,0.352v2.051h-7.066v-2.051l1.816-0.352v-12.246l-1.816-0.352v-2.063h1.816h4.465l4.348,12.574h0.07l4.383-12.574h6.305   v2.063l-1.828,0.352v12.246l1.828,0.352v2.051h-7.066v-2.051l1.816-0.352v-2.684L646.094,624.875z"/>
</g>
<rect x="41.149" y="254" fill="#F0F0F0" width="241.267" height="68"/>
<rect x="41.149" y="254" fill="none" stroke="#000000" stroke-linecap="square" stroke-miterlimit="3" width="241.267" height="68"/>
<g>
	<path d="M96.077,280.17v2.063l-1.828,0.352v8.906c0,1.125,0.303,1.967,0.908,2.525s1.436,0.838,2.49,0.838   c1.07,0,1.91-0.277,2.52-0.832s0.914-1.398,0.914-2.531v-8.906l-1.816-0.352v-2.063h7.066v2.063l-1.828,0.352v8.906   c0,1.914-0.631,3.391-1.893,4.43s-2.916,1.559-4.963,1.559c-2.039,0-3.686-0.52-4.939-1.559s-1.881-2.516-1.881-4.43v-8.906   l-1.816-0.352v-2.063h1.816h3.422H96.077z"/>
	<path d="M117.769,288.912h-2.297l-0.363-1.582c-0.234-0.188-0.529-0.344-0.885-0.469s-0.748-0.188-1.178-0.188   c-0.602,0-1.078,0.135-1.43,0.404s-0.527,0.607-0.527,1.014c0,0.383,0.168,0.701,0.504,0.955s1.008,0.479,2.016,0.674   c1.57,0.313,2.734,0.771,3.492,1.377s1.137,1.439,1.137,2.502c0,1.141-0.49,2.072-1.471,2.795s-2.271,1.084-3.873,1.084   c-0.977,0-1.873-0.143-2.689-0.428s-1.541-0.693-2.174-1.225l-0.035-2.848h2.391l0.469,1.652c0.203,0.172,0.48,0.299,0.832,0.381   s0.719,0.123,1.102,0.123c0.695,0,1.225-0.125,1.588-0.375s0.545-0.59,0.545-1.02c0-0.375-0.184-0.699-0.551-0.973   s-1.043-0.516-2.027-0.727c-1.492-0.305-2.619-0.756-3.381-1.354s-1.143-1.412-1.143-2.443c0-1.063,0.438-1.979,1.313-2.748   s2.121-1.154,3.738-1.154c0.984,0,1.916,0.133,2.795,0.398s1.568,0.605,2.068,1.02L117.769,288.912z"/>
	<path d="M125.843,297.479c-1.828,0-3.289-0.586-4.383-1.758s-1.641-2.66-1.641-4.465v-0.469c0-1.883,0.518-3.434,1.553-4.652   s2.424-1.824,4.166-1.816c1.711,0,3.039,0.516,3.984,1.547s1.418,2.426,1.418,4.184v1.863h-7.57l-0.023,0.07   c0.063,0.836,0.342,1.523,0.838,2.063s1.17,0.809,2.021,0.809c0.758,0,1.387-0.076,1.887-0.229s1.047-0.393,1.641-0.721   l0.926,2.109c-0.523,0.414-1.201,0.762-2.033,1.043S126.866,297.479,125.843,297.479z M125.538,286.955   c-0.633,0-1.133,0.242-1.5,0.727s-0.594,1.121-0.68,1.91l0.035,0.059h4.195v-0.305c0-0.727-0.17-1.307-0.51-1.74   S126.226,286.955,125.538,286.955z"/>
	<path d="M132.815,295.182l1.641-0.352v-7.863l-1.816-0.352v-2.063h5.004l0.152,1.852c0.297-0.656,0.68-1.168,1.148-1.535   s1.012-0.551,1.629-0.551c0.18,0,0.369,0.014,0.568,0.041s0.365,0.061,0.498,0.1l-0.363,3.117l-1.406-0.035   c-0.5,0-0.914,0.098-1.242,0.293s-0.578,0.473-0.75,0.832v6.164l1.641,0.352v2.051h-6.703V295.182z"/>
	<path d="M148.179,281.014v-2.063h5.25v15.879l1.652,0.352v2.051h-6.727v-2.051l1.652-0.352v-13.465L148.179,281.014z"/>
	<path d="M156.194,290.775c0-1.891,0.529-3.439,1.588-4.646s2.521-1.811,4.389-1.811c1.875,0,3.342,0.602,4.4,1.805   s1.588,2.754,1.588,4.652v0.246c0,1.906-0.529,3.459-1.588,4.658s-2.518,1.799-4.377,1.799c-1.883,0-3.354-0.6-4.412-1.799   s-1.588-2.752-1.588-4.658V290.775z M159.616,291.021c0,1.156,0.203,2.084,0.609,2.783s1.063,1.049,1.969,1.049   c0.883,0,1.529-0.352,1.939-1.055s0.615-1.629,0.615-2.777v-0.246c0-1.125-0.207-2.043-0.621-2.754s-1.066-1.066-1.957-1.066   s-1.539,0.355-1.945,1.066s-0.609,1.629-0.609,2.754V291.021z"/>
	<path d="M169.858,290.998c0-2,0.436-3.613,1.307-4.84s2.092-1.84,3.662-1.84c0.711,0,1.336,0.158,1.875,0.475s1,0.768,1.383,1.354   l0.246-1.594h2.977v12.305c0,1.672-0.525,3.006-1.576,4.002s-2.494,1.494-4.33,1.494c-0.641,0-1.32-0.088-2.039-0.264   s-1.383-0.416-1.992-0.721l0.633-2.402c0.547,0.234,1.094,0.42,1.641,0.557s1.125,0.205,1.734,0.205   c0.836,0,1.461-0.254,1.875-0.762s0.621-1.215,0.621-2.121v-0.832c-0.375,0.477-0.816,0.84-1.324,1.09s-1.09,0.375-1.746,0.375   c-1.555,0-2.768-0.572-3.639-1.717s-1.307-2.65-1.307-4.518V290.998z M173.28,291.244c0,1.109,0.188,1.982,0.563,2.619   s0.984,0.955,1.828,0.955c0.523,0,0.967-0.096,1.33-0.287s0.654-0.471,0.873-0.838v-5.508c-0.219-0.383-0.51-0.68-0.873-0.891   s-0.799-0.316-1.307-0.316c-0.836,0-1.447,0.371-1.834,1.113s-0.58,1.711-0.58,2.906V291.244z"/>
	<path d="M183.569,290.998c0-2,0.436-3.613,1.307-4.84s2.092-1.84,3.662-1.84c0.711,0,1.336,0.158,1.875,0.475s1,0.768,1.383,1.354   l0.246-1.594h2.977v12.305c0,1.672-0.525,3.006-1.576,4.002s-2.494,1.494-4.33,1.494c-0.641,0-1.32-0.088-2.039-0.264   s-1.383-0.416-1.992-0.721l0.633-2.402c0.547,0.234,1.094,0.42,1.641,0.557s1.125,0.205,1.734,0.205   c0.836,0,1.461-0.254,1.875-0.762s0.621-1.215,0.621-2.121v-0.832c-0.375,0.477-0.816,0.84-1.324,1.09s-1.09,0.375-1.746,0.375   c-1.555,0-2.768-0.572-3.639-1.717s-1.307-2.65-1.307-4.518V290.998z M186.991,291.244c0,1.109,0.188,1.982,0.563,2.619   s0.984,0.955,1.828,0.955c0.523,0,0.967-0.096,1.33-0.287s0.654-0.471,0.873-0.838v-5.508c-0.219-0.383-0.51-0.68-0.873-0.891   s-0.799-0.316-1.307-0.316c-0.836,0-1.447,0.371-1.834,1.113s-0.58,1.711-0.58,2.906V291.244z"/>
	<path d="M196.964,295.182l1.652-0.352v-7.863l-1.828-0.352v-2.063h5.25v10.277l1.641,0.352v2.051h-6.715V295.182z M202.038,281.518   h-3.422v-2.566h3.422V281.518z"/>
	<path d="M204.616,295.182l1.641-0.352v-7.863l-1.816-0.352v-2.063h5.004l0.152,1.816c0.422-0.648,0.941-1.152,1.559-1.512   s1.309-0.539,2.074-0.539c1.281,0,2.281,0.402,3,1.207s1.078,2.066,1.078,3.785v5.52l1.641,0.352v2.051h-6.539v-2.051l1.465-0.352   v-5.508c0-0.852-0.172-1.455-0.516-1.811s-0.863-0.533-1.559-0.533c-0.453,0-0.859,0.092-1.219,0.275s-0.66,0.443-0.902,0.779   v6.797l1.383,0.352v2.051h-6.445V295.182z"/>
	<path d="M220.249,290.998c0-2,0.436-3.613,1.307-4.84s2.092-1.84,3.662-1.84c0.711,0,1.336,0.158,1.875,0.475s1,0.768,1.383,1.354   l0.246-1.594h2.977v12.305c0,1.672-0.525,3.006-1.576,4.002s-2.494,1.494-4.33,1.494c-0.641,0-1.32-0.088-2.039-0.264   s-1.383-0.416-1.992-0.721l0.633-2.402c0.547,0.234,1.094,0.42,1.641,0.557s1.125,0.205,1.734,0.205   c0.836,0,1.461-0.254,1.875-0.762s0.621-1.215,0.621-2.121v-0.832c-0.375,0.477-0.816,0.84-1.324,1.09s-1.09,0.375-1.746,0.375   c-1.555,0-2.768-0.572-3.639-1.717s-1.307-2.65-1.307-4.518V290.998z M223.671,291.244c0,1.109,0.188,1.982,0.563,2.619   s0.984,0.955,1.828,0.955c0.523,0,0.967-0.096,1.33-0.287s0.654-0.471,0.873-0.838v-5.508c-0.219-0.383-0.51-0.68-0.873-0.891   s-0.799-0.316-1.307-0.316c-0.836,0-1.447,0.371-1.834,1.113s-0.58,1.711-0.58,2.906V291.244z"/>
</g>
<rect x="398.733" y="254" fill="#F0F0F0" width="241.267" height="68"/>
<rect x="398.733" y="254" fill="none" stroke="#000000" stroke-linecap="square" stroke-miterlimit="3" width="241.267" height="68"/>
<g>
	<path d="M434.563,284.611l-0.07-0.012l-4.57,12.633h-2.297l-4.547-12.586l-0.07,0.012l0.328,7.488v2.684l1.828,0.352v2.051h-7.066   v-2.051l1.816-0.352v-12.246l-1.816-0.352v-2.063h1.816h4.465l4.348,12.574h0.07l4.383-12.574h6.305v2.063l-1.828,0.352v12.246   l1.828,0.352v2.051h-7.066v-2.051l1.816-0.352v-2.684L434.563,284.611z"/>
	<path d="M446.855,297.479c-1.828,0-3.289-0.586-4.383-1.758s-1.641-2.66-1.641-4.465v-0.469c0-1.883,0.518-3.434,1.553-4.652   s2.424-1.824,4.166-1.816c1.711,0,3.039,0.516,3.984,1.547s1.418,2.426,1.418,4.184v1.863h-7.57l-0.023,0.07   c0.063,0.836,0.342,1.523,0.838,2.063s1.17,0.809,2.021,0.809c0.758,0,1.387-0.076,1.887-0.229s1.047-0.393,1.641-0.721   l0.926,2.109c-0.523,0.414-1.201,0.762-2.033,1.043S447.879,297.479,446.855,297.479z M446.551,286.955   c-0.633,0-1.133,0.242-1.5,0.727s-0.594,1.121-0.68,1.91l0.035,0.059h4.195v-0.305c0-0.727-0.17-1.307-0.51-1.74   S447.238,286.955,446.551,286.955z"/>
	<path d="M453.383,295.182l1.641-0.352v-7.863l-1.816-0.352v-2.063h5.004l0.152,1.816c0.422-0.648,0.941-1.152,1.559-1.512   s1.309-0.539,2.074-0.539c1.281,0,2.281,0.402,3,1.207s1.078,2.066,1.078,3.785v5.52l1.641,0.352v2.051h-6.539v-2.051l1.465-0.352   v-5.508c0-0.852-0.172-1.455-0.516-1.811s-0.863-0.533-1.559-0.533c-0.453,0-0.859,0.092-1.219,0.275s-0.66,0.443-0.902,0.779   v6.797l1.383,0.352v2.051h-6.445V295.182z"/>
	<path d="M477.676,295.627c-0.406,0.594-0.908,1.051-1.506,1.371s-1.279,0.48-2.045,0.48c-1.336,0-2.383-0.428-3.141-1.283   s-1.137-2.186-1.137-3.99v-5.238l-1.395-0.352v-2.063h1.395h3.422v7.676c0,0.922,0.154,1.584,0.463,1.986s0.768,0.604,1.377,0.604   c0.539,0,1.006-0.088,1.4-0.264s0.717-0.428,0.967-0.756v-6.832l-1.5-0.352v-2.063h1.5h3.422v10.277l1.535,0.352v2.051h-4.535   L477.676,295.627z"/>
	<path d="M497.738,297.232c-0.094-0.211-0.176-0.428-0.246-0.65s-0.125-0.447-0.164-0.674c-0.406,0.469-0.9,0.848-1.482,1.137   s-1.248,0.434-1.998,0.434c-1.242,0-2.229-0.338-2.959-1.014s-1.096-1.596-1.096-2.76c0-1.188,0.477-2.105,1.43-2.754   s2.352-0.973,4.195-0.973h1.746v-1.242c0-0.609-0.176-1.082-0.527-1.418s-0.871-0.504-1.559-0.504   c-0.391,0-0.738,0.045-1.043,0.135s-0.551,0.197-0.738,0.322l-0.223,1.359h-2.578l0.012-2.813c0.625-0.422,1.342-0.777,2.15-1.066   s1.689-0.434,2.643-0.434c1.57,0,2.846,0.385,3.826,1.154s1.471,1.865,1.471,3.287v5.238c0,0.195,0.002,0.379,0.006,0.551   s0.018,0.336,0.041,0.492l1.043,0.141v2.051H497.738z M494.773,294.947c0.516,0,0.984-0.111,1.406-0.334s0.75-0.502,0.984-0.838   v-1.934h-1.746c-0.727,0-1.277,0.17-1.652,0.51s-0.563,0.748-0.563,1.225c0,0.43,0.139,0.766,0.416,1.008   S494.281,294.947,494.773,294.947z"/>
	<path d="M515.105,291.244c0,1.891-0.422,3.402-1.266,4.535s-2.063,1.699-3.656,1.699c-0.742,0-1.387-0.154-1.934-0.463   s-1.008-0.756-1.383-1.342l-0.246,1.559h-2.953v-15.867l-1.816-0.352v-2.063h5.227v6.949c0.367-0.508,0.807-0.898,1.318-1.172   s1.1-0.41,1.764-0.41c1.609,0,2.836,0.607,3.68,1.822s1.266,2.834,1.266,4.857V291.244z M511.695,290.998   c0-1.234-0.182-2.213-0.545-2.936s-0.982-1.084-1.857-1.084c-0.531,0-0.98,0.111-1.348,0.334s-0.656,0.541-0.867,0.955v5.355   c0.211,0.391,0.502,0.688,0.873,0.891s0.826,0.305,1.365,0.305c0.883,0,1.5-0.311,1.852-0.932s0.527-1.502,0.527-2.643V290.998z"/>
	<path d="M527.035,288.912h-2.297l-0.363-1.582c-0.234-0.188-0.529-0.344-0.885-0.469s-0.748-0.188-1.178-0.188   c-0.602,0-1.078,0.135-1.43,0.404s-0.527,0.607-0.527,1.014c0,0.383,0.168,0.701,0.504,0.955s1.008,0.479,2.016,0.674   c1.57,0.313,2.734,0.771,3.492,1.377s1.137,1.439,1.137,2.502c0,1.141-0.49,2.072-1.471,2.795s-2.271,1.084-3.873,1.084   c-0.977,0-1.873-0.143-2.689-0.428s-1.541-0.693-2.174-1.225l-0.035-2.848h2.391l0.469,1.652c0.203,0.172,0.48,0.299,0.832,0.381   s0.719,0.123,1.102,0.123c0.695,0,1.225-0.125,1.588-0.375s0.545-0.59,0.545-1.02c0-0.375-0.184-0.699-0.551-0.973   s-1.043-0.516-2.027-0.727c-1.492-0.305-2.619-0.756-3.381-1.354s-1.143-1.412-1.143-2.443c0-1.063,0.438-1.979,1.313-2.748   s2.121-1.154,3.738-1.154c0.984,0,1.916,0.133,2.795,0.398s1.568,0.605,2.068,1.02L527.035,288.912z"/>
	<path d="M534.09,281.447v3.105h2.227v2.402h-2.227v6.457c0,0.492,0.102,0.844,0.305,1.055s0.477,0.316,0.82,0.316   c0.234,0,0.439-0.01,0.615-0.029s0.373-0.053,0.592-0.1l0.293,2.473c-0.383,0.117-0.762,0.205-1.137,0.264   s-0.781,0.088-1.219,0.088c-1.18,0-2.088-0.324-2.725-0.973s-0.955-1.676-0.955-3.082v-6.469h-1.863v-2.402h1.863v-3.105H534.09z"/>
	<path d="M538.25,295.182l1.641-0.352v-7.863l-1.816-0.352v-2.063h5.004l0.152,1.852c0.297-0.656,0.68-1.168,1.148-1.535   s1.012-0.551,1.629-0.551c0.18,0,0.369,0.014,0.568,0.041s0.365,0.061,0.498,0.1l-0.363,3.117l-1.406-0.035   c-0.5,0-0.914,0.098-1.242,0.293s-0.578,0.473-0.75,0.832v6.164l1.641,0.352v2.051h-6.703V295.182z"/>
	<path d="M556.168,297.232c-0.094-0.211-0.176-0.428-0.246-0.65s-0.125-0.447-0.164-0.674c-0.406,0.469-0.9,0.848-1.482,1.137   s-1.248,0.434-1.998,0.434c-1.242,0-2.229-0.338-2.959-1.014s-1.096-1.596-1.096-2.76c0-1.188,0.477-2.105,1.43-2.754   s2.352-0.973,4.195-0.973h1.746v-1.242c0-0.609-0.176-1.082-0.527-1.418s-0.871-0.504-1.559-0.504   c-0.391,0-0.738,0.045-1.043,0.135s-0.551,0.197-0.738,0.322l-0.223,1.359h-2.578l0.012-2.813c0.625-0.422,1.342-0.777,2.15-1.066   s1.689-0.434,2.643-0.434c1.57,0,2.846,0.385,3.826,1.154s1.471,1.865,1.471,3.287v5.238c0,0.195,0.002,0.379,0.006,0.551   s0.018,0.336,0.041,0.492l1.043,0.141v2.051H556.168z M553.203,294.947c0.516,0,0.984-0.111,1.406-0.334s0.75-0.502,0.984-0.838   v-1.934h-1.746c-0.727,0-1.277,0.17-1.652,0.51s-0.563,0.748-0.563,1.225c0,0.43,0.139,0.766,0.416,1.008   S552.711,294.947,553.203,294.947z"/>
	<path d="M567.23,294.854c0.609,0,1.098-0.178,1.465-0.533s0.551-0.83,0.551-1.424h3.094l0.035,0.07   c0.031,1.281-0.449,2.354-1.441,3.217s-2.227,1.295-3.703,1.295c-1.891,0-3.348-0.598-4.371-1.793s-1.535-2.73-1.535-4.605v-0.352   c0-1.867,0.525-3.402,1.576-4.605s2.549-1.805,4.494-1.805c1.023,0,1.941,0.152,2.754,0.457s1.488,0.734,2.027,1.289l0.047,3.387   h-2.777l-0.563-1.98c-0.172-0.148-0.383-0.271-0.633-0.369s-0.535-0.146-0.855-0.146c-0.969,0-1.652,0.352-2.051,1.055   s-0.598,1.609-0.598,2.719v0.352c0,1.133,0.184,2.045,0.551,2.736S566.309,294.854,567.23,294.854z"/>
	<path d="M578.973,281.447v3.105h2.227v2.402h-2.227v6.457c0,0.492,0.102,0.844,0.305,1.055s0.477,0.316,0.82,0.316   c0.234,0,0.439-0.01,0.615-0.029s0.373-0.053,0.592-0.1l0.293,2.473c-0.383,0.117-0.762,0.205-1.137,0.264   s-0.781,0.088-1.219,0.088c-1.18,0-2.088-0.324-2.725-0.973s-0.955-1.676-0.955-3.082v-6.469h-1.863v-2.402h1.863v-3.105H578.973z"/>
	<path d="M582.77,295.182l1.652-0.352v-7.863l-1.828-0.352v-2.063h5.25v10.277l1.641,0.352v2.051h-6.715V295.182z M587.844,281.518   h-3.422v-2.566h3.422V281.518z"/>
	<path d="M590.609,290.775c0-1.891,0.529-3.439,1.588-4.646s2.521-1.811,4.389-1.811c1.875,0,3.342,0.602,4.4,1.805   s1.588,2.754,1.588,4.652v0.246c0,1.906-0.529,3.459-1.588,4.658s-2.518,1.799-4.377,1.799c-1.883,0-3.354-0.6-4.412-1.799   s-1.588-2.752-1.588-4.658V290.775z M594.031,291.021c0,1.156,0.203,2.084,0.609,2.783s1.063,1.049,1.969,1.049   c0.883,0,1.529-0.352,1.939-1.055s0.615-1.629,0.615-2.777v-0.246c0-1.125-0.207-2.043-0.621-2.754s-1.066-1.066-1.957-1.066   s-1.539,0.355-1.945,1.066s-0.609,1.629-0.609,2.754V291.021z"/>
	<path d="M603.875,295.182l1.641-0.352v-7.863l-1.816-0.352v-2.063h5.004l0.152,1.816c0.422-0.648,0.941-1.152,1.559-1.512   s1.309-0.539,2.074-0.539c1.281,0,2.281,0.402,3,1.207s1.078,2.066,1.078,3.785v5.52l1.641,0.352v2.051h-6.539v-2.051l1.465-0.352   v-5.508c0-0.852-0.172-1.455-0.516-1.811s-0.863-0.533-1.559-0.533c-0.453,0-0.859,0.092-1.219,0.275s-0.66,0.443-0.902,0.779   v6.797l1.383,0.352v2.051h-6.445V295.182z"/>
</g>
<rect x="41.149" y="539.411" fill="#F0F0F0" width="241.267" height="68"/>
<rect x="41.149" y="539.411" fill="none" stroke="#000000" stroke-linecap="square" stroke-miterlimit="3" width="241.267" height="68"/>
<g>
	<path d="M67.015,580.593l1.219-0.176l5.191-14.836h3.504l5.156,14.836l1.219,0.176v2.051h-5.813v-2.051l1.184-0.211l-0.75-2.344   h-5.531l-0.75,2.344l1.184,0.211v2.051h-5.813V580.593z M73.202,575.519h3.914l-1.922-6.012h-0.07L73.202,575.519z"/>
	<path d="M92.761,581.097c-0.398,0.586-0.869,1.031-1.412,1.336s-1.162,0.457-1.857,0.457c-1.563,0-2.775-0.57-3.639-1.711   s-1.295-2.648-1.295-4.523v-0.246c0-2,0.434-3.613,1.301-4.84s2.086-1.84,3.656-1.84c0.633,0,1.203,0.139,1.711,0.416   s0.953,0.67,1.336,1.178v-4.547l-1.828-0.352v-2.063h1.828h3.422v15.879l1.641,0.352v2.051h-4.605L92.761,581.097z M87.979,576.655   c0,1.109,0.186,1.982,0.557,2.619s0.979,0.955,1.822,0.955c0.5,0,0.934-0.102,1.301-0.305s0.668-0.496,0.902-0.879v-5.379   c-0.234-0.406-0.533-0.721-0.896-0.943s-0.791-0.334-1.283-0.334c-0.836,0-1.445,0.371-1.828,1.113s-0.574,1.711-0.574,2.906   V576.655z"/>
	<path d="M106.788,582.644c-0.094-0.211-0.176-0.428-0.246-0.65s-0.125-0.447-0.164-0.674c-0.406,0.469-0.9,0.848-1.482,1.137   s-1.248,0.434-1.998,0.434c-1.242,0-2.229-0.338-2.959-1.014s-1.096-1.596-1.096-2.76c0-1.188,0.477-2.105,1.43-2.754   s2.352-0.973,4.195-0.973h1.746v-1.242c0-0.609-0.176-1.082-0.527-1.418s-0.871-0.504-1.559-0.504   c-0.391,0-0.738,0.045-1.043,0.135s-0.551,0.197-0.738,0.322l-0.223,1.359h-2.578l0.012-2.813c0.625-0.422,1.342-0.777,2.15-1.066   s1.689-0.434,2.643-0.434c1.57,0,2.846,0.385,3.826,1.154s1.471,1.865,1.471,3.287v5.238c0,0.195,0.002,0.379,0.006,0.551   s0.018,0.336,0.041,0.492l1.043,0.141v2.051H106.788z M103.823,580.358c0.516,0,0.984-0.111,1.406-0.334s0.75-0.502,0.984-0.838   v-1.934h-1.746c-0.727,0-1.277,0.17-1.652,0.51s-0.563,0.748-0.563,1.225c0,0.43,0.139,0.766,0.416,1.008   S103.331,580.358,103.823,580.358z"/>
	<path d="M111.64,572.026v-2.063h4.969l0.164,1.477c0.375-0.547,0.824-0.969,1.348-1.266s1.133-0.445,1.828-0.445   c1.57,0,2.789,0.613,3.656,1.84s1.301,2.84,1.301,4.84v0.246c0,1.875-0.434,3.383-1.301,4.523s-2.078,1.711-3.633,1.711   c-0.664,0-1.254-0.123-1.77-0.369s-0.957-0.607-1.324-1.084v3.668l1.652,0.352v2.063h-6.715v-2.063l1.652-0.352v-12.727   L111.64,572.026z M121.483,576.409c0-1.195-0.199-2.164-0.598-2.906s-1.008-1.113-1.828-1.113c-0.516,0-0.955,0.105-1.318,0.316   s-0.65,0.512-0.861,0.902v5.555c0.211,0.359,0.498,0.633,0.861,0.82s0.811,0.281,1.342,0.281c0.828,0,1.436-0.324,1.822-0.973   s0.58-1.527,0.58-2.637V576.409z"/>
	<path d="M131.479,566.858v3.105h2.227v2.402h-2.227v6.457c0,0.492,0.102,0.844,0.305,1.055s0.477,0.316,0.82,0.316   c0.234,0,0.439-0.01,0.615-0.029s0.373-0.053,0.592-0.1l0.293,2.473c-0.383,0.117-0.762,0.205-1.137,0.264   s-0.781,0.088-1.219,0.088c-1.18,0-2.088-0.324-2.725-0.973s-0.955-1.676-0.955-3.082v-6.469h-1.863v-2.402h1.863v-3.105H131.479z"/>
	<path d="M143.456,582.644c-0.094-0.211-0.176-0.428-0.246-0.65s-0.125-0.447-0.164-0.674c-0.406,0.469-0.9,0.848-1.482,1.137   s-1.248,0.434-1.998,0.434c-1.242,0-2.229-0.338-2.959-1.014s-1.096-1.596-1.096-2.76c0-1.188,0.477-2.105,1.43-2.754   s2.352-0.973,4.195-0.973h1.746v-1.242c0-0.609-0.176-1.082-0.527-1.418s-0.871-0.504-1.559-0.504   c-0.391,0-0.738,0.045-1.043,0.135s-0.551,0.197-0.738,0.322l-0.223,1.359h-2.578l0.012-2.813c0.625-0.422,1.342-0.777,2.15-1.066   s1.689-0.434,2.643-0.434c1.57,0,2.846,0.385,3.826,1.154s1.471,1.865,1.471,3.287v5.238c0,0.195,0.002,0.379,0.006,0.551   s0.018,0.336,0.041,0.492l1.043,0.141v2.051H143.456z M140.491,580.358c0.516,0,0.984-0.111,1.406-0.334s0.75-0.502,0.984-0.838   v-1.934h-1.746c-0.727,0-1.277,0.17-1.652,0.51s-0.563,0.748-0.563,1.225c0,0.43,0.139,0.766,0.416,1.008   S139.999,580.358,140.491,580.358z"/>
	<path d="M153.616,566.858v3.105h2.227v2.402h-2.227v6.457c0,0.492,0.102,0.844,0.305,1.055s0.477,0.316,0.82,0.316   c0.234,0,0.439-0.01,0.615-0.029s0.373-0.053,0.592-0.1l0.293,2.473c-0.383,0.117-0.762,0.205-1.137,0.264   s-0.781,0.088-1.219,0.088c-1.18,0-2.088-0.324-2.725-0.973s-0.955-1.676-0.955-3.082v-6.469h-1.863v-2.402h1.863v-3.105H153.616z"/>
	<path d="M157.413,580.593l1.652-0.352v-7.863l-1.828-0.352v-2.063h5.25v10.277l1.641,0.352v2.051h-6.715V580.593z M162.487,566.929   h-3.422v-2.566h3.422V566.929z"/>
	<path d="M165.253,576.187c0-1.891,0.529-3.439,1.588-4.646s2.521-1.811,4.389-1.811c1.875,0,3.342,0.602,4.4,1.805   s1.588,2.754,1.588,4.652v0.246c0,1.906-0.529,3.459-1.588,4.658s-2.518,1.799-4.377,1.799c-1.883,0-3.354-0.6-4.412-1.799   s-1.588-2.752-1.588-4.658V576.187z M168.675,576.433c0,1.156,0.203,2.084,0.609,2.783s1.063,1.049,1.969,1.049   c0.883,0,1.529-0.352,1.939-1.055s0.615-1.629,0.615-2.777v-0.246c0-1.125-0.207-2.043-0.621-2.754s-1.066-1.066-1.957-1.066   s-1.539,0.355-1.945,1.066s-0.609,1.629-0.609,2.754V576.433z"/>
	<path d="M178.519,580.593l1.641-0.352v-7.863l-1.816-0.352v-2.063h5.004l0.152,1.816c0.422-0.648,0.941-1.152,1.559-1.512   s1.309-0.539,2.074-0.539c1.281,0,2.281,0.402,3,1.207s1.078,2.066,1.078,3.785v5.52l1.641,0.352v2.051h-6.539v-2.051l1.465-0.352   v-5.508c0-0.852-0.172-1.455-0.516-1.811s-0.863-0.533-1.559-0.533c-0.453,0-0.859,0.092-1.219,0.275s-0.66,0.443-0.902,0.779   v6.797l1.383,0.352v2.051h-6.445V580.593z"/>
	<path d="M210.171,574.323h-2.297l-0.363-1.582c-0.234-0.188-0.529-0.344-0.885-0.469s-0.748-0.188-1.178-0.188   c-0.602,0-1.078,0.135-1.43,0.404s-0.527,0.607-0.527,1.014c0,0.383,0.168,0.701,0.504,0.955s1.008,0.479,2.016,0.674   c1.57,0.313,2.734,0.771,3.492,1.377s1.137,1.439,1.137,2.502c0,1.141-0.49,2.072-1.471,2.795s-2.271,1.084-3.873,1.084   c-0.977,0-1.873-0.143-2.689-0.428s-1.541-0.693-2.174-1.225l-0.035-2.848h2.391l0.469,1.652c0.203,0.172,0.48,0.299,0.832,0.381   s0.719,0.123,1.102,0.123c0.695,0,1.225-0.125,1.588-0.375s0.545-0.59,0.545-1.02c0-0.375-0.184-0.699-0.551-0.973   s-1.043-0.516-2.027-0.727c-1.492-0.305-2.619-0.756-3.381-1.354s-1.143-1.412-1.143-2.443c0-1.063,0.438-1.979,1.313-2.748   s2.121-1.154,3.738-1.154c0.984,0,1.916,0.133,2.795,0.398s1.568,0.605,2.068,1.02L210.171,574.323z"/>
	<path d="M217.226,566.858v3.105h2.227v2.402h-2.227v6.457c0,0.492,0.102,0.844,0.305,1.055s0.477,0.316,0.82,0.316   c0.234,0,0.439-0.01,0.615-0.029s0.373-0.053,0.592-0.1l0.293,2.473c-0.383,0.117-0.762,0.205-1.137,0.264   s-0.781,0.088-1.219,0.088c-1.18,0-2.088-0.324-2.725-0.973s-0.955-1.676-0.955-3.082v-6.469h-1.863v-2.402h1.863v-3.105H217.226z"/>
	<path d="M234.253,572.026l-1.184,0.176l-4.664,12.34c-0.367,0.914-0.857,1.68-1.471,2.297s-1.537,0.926-2.771,0.926   c-0.289,0-0.561-0.023-0.814-0.07s-0.553-0.113-0.896-0.199l0.398-2.496c0.109,0.016,0.223,0.031,0.34,0.047   s0.219,0.023,0.305,0.023c0.57,0,1.008-0.139,1.313-0.416s0.539-0.623,0.703-1.037l0.387-0.961l-4.02-10.441l-1.184-0.188v-2.063   h6.211v2.063l-1.418,0.234l1.734,5.063l0.176,0.914l0.07,0.012l2.004-5.988l-1.43-0.234v-2.063h6.211V572.026z"/>
	<path d="M234.968,566.425v-2.063h5.25v15.879l1.652,0.352v2.051h-6.727v-2.051l1.652-0.352v-13.465L234.968,566.425z"/>
	<path d="M249.054,582.89c-1.828,0-3.289-0.586-4.383-1.758s-1.641-2.66-1.641-4.465v-0.469c0-1.883,0.518-3.434,1.553-4.652   s2.424-1.824,4.166-1.816c1.711,0,3.039,0.516,3.984,1.547s1.418,2.426,1.418,4.184v1.863h-7.57l-0.023,0.07   c0.063,0.836,0.342,1.523,0.838,2.063s1.17,0.809,2.021,0.809c0.758,0,1.387-0.076,1.887-0.229s1.047-0.393,1.641-0.721   l0.926,2.109c-0.523,0.414-1.201,0.762-2.033,1.043S250.077,582.89,249.054,582.89z M248.749,572.366   c-0.633,0-1.133,0.242-1.5,0.727s-0.594,1.121-0.68,1.91l0.035,0.059h4.195v-0.305c0-0.727-0.17-1.307-0.51-1.74   S249.437,572.366,248.749,572.366z"/>
</g>
<polygon fill="#F0F0F0" points="319.447,49 388.503,49 388.503,179 292.416,179 292.416,75.972 "/>
<polygon fill="none" stroke="#000000" stroke-linecap="square" stroke-miterlimit="3" points="319.447,49 388.503,49 388.503,179   292.416,179 292.416,75.972 "/>
<g>
	<path d="M337.35,93.996l-1.406,0.176l-3.457,14.824h-3.176l-3.129-11.262h-0.07l-3.129,11.262h-3.176l-3.48-14.824l-1.395-0.176   v-2.063h6.281v2.063l-1.559,0.27l1.957,9.352l0.07,0.012l3.199-11.695h2.52l3.223,11.695l0.07-0.012l1.945-9.352l-1.559-0.27   v-2.063h6.27V93.996z"/>
	<path d="M344.51,109.242c-1.828,0-3.289-0.586-4.383-1.758s-1.641-2.66-1.641-4.465v-0.469c0-1.883,0.518-3.434,1.553-4.652   s2.424-1.824,4.166-1.816c1.711,0,3.039,0.516,3.984,1.547s1.418,2.426,1.418,4.184v1.863h-7.57l-0.023,0.07   c0.063,0.836,0.342,1.523,0.838,2.063s1.17,0.809,2.021,0.809c0.758,0,1.387-0.076,1.887-0.229s1.047-0.393,1.641-0.721   l0.926,2.109c-0.523,0.414-1.201,0.762-2.033,1.043S345.533,109.242,344.51,109.242z M344.205,98.719   c-0.633,0-1.133,0.242-1.5,0.727s-0.594,1.121-0.68,1.91l0.035,0.059h4.195v-0.305c0-0.727-0.17-1.307-0.51-1.74   S344.893,98.719,344.205,98.719z"/>
	<path d="M363.482,103.008c0,1.891-0.422,3.402-1.266,4.535s-2.063,1.699-3.656,1.699c-0.742,0-1.387-0.154-1.934-0.463   s-1.008-0.756-1.383-1.342l-0.246,1.559h-2.953V93.129l-1.816-0.352v-2.063h5.227v6.949c0.367-0.508,0.807-0.898,1.318-1.172   s1.1-0.41,1.764-0.41c1.609,0,2.836,0.607,3.68,1.822s1.266,2.834,1.266,4.857V103.008z M360.072,102.762   c0-1.234-0.182-2.213-0.545-2.936s-0.982-1.084-1.857-1.084c-0.531,0-0.98,0.111-1.348,0.334s-0.656,0.541-0.867,0.955v5.355   c0.211,0.391,0.502,0.688,0.873,0.891s0.826,0.305,1.365,0.305c0.883,0,1.5-0.311,1.852-0.932s0.527-1.502,0.527-2.643V102.762z"/>
</g>
<g>
	<path d="M312.834,130.031v-2.063h4.969l0.164,1.477c0.375-0.547,0.824-0.969,1.348-1.266s1.133-0.445,1.828-0.445   c1.57,0,2.789,0.613,3.656,1.84s1.301,2.84,1.301,4.84v0.246c0,1.875-0.434,3.383-1.301,4.523s-2.078,1.711-3.633,1.711   c-0.664,0-1.254-0.123-1.77-0.369s-0.957-0.607-1.324-1.084v3.668l1.652,0.352v2.063h-6.715v-2.063l1.652-0.352v-12.727   L312.834,130.031z M322.678,134.414c0-1.195-0.199-2.164-0.598-2.906s-1.008-1.113-1.828-1.113c-0.516,0-0.955,0.105-1.318,0.316   s-0.65,0.512-0.861,0.902v5.555c0.211,0.359,0.498,0.633,0.861,0.82s0.811,0.281,1.342,0.281c0.828,0,1.436-0.324,1.822-0.973   s0.58-1.527,0.58-2.637V134.414z"/>
	<path d="M335.697,140.648c-0.094-0.211-0.176-0.428-0.246-0.65s-0.125-0.447-0.164-0.674c-0.406,0.469-0.9,0.848-1.482,1.137   s-1.248,0.434-1.998,0.434c-1.242,0-2.229-0.338-2.959-1.014s-1.096-1.596-1.096-2.76c0-1.188,0.477-2.105,1.43-2.754   s2.352-0.973,4.195-0.973h1.746v-1.242c0-0.609-0.176-1.082-0.527-1.418s-0.871-0.504-1.559-0.504   c-0.391,0-0.738,0.045-1.043,0.135s-0.551,0.197-0.738,0.322l-0.223,1.359h-2.578l0.012-2.813c0.625-0.422,1.342-0.777,2.15-1.066   s1.689-0.434,2.643-0.434c1.57,0,2.846,0.385,3.826,1.154s1.471,1.865,1.471,3.287v5.238c0,0.195,0.002,0.379,0.006,0.551   s0.018,0.336,0.041,0.492l1.043,0.141v2.051H335.697z M332.732,138.363c0.516,0,0.984-0.111,1.406-0.334s0.75-0.502,0.984-0.838   v-1.934h-1.746c-0.727,0-1.277,0.17-1.652,0.51s-0.563,0.748-0.563,1.225c0,0.43,0.139,0.766,0.416,1.008   S332.24,138.363,332.732,138.363z"/>
	<path d="M341.018,134.414c0-2,0.436-3.613,1.307-4.84s2.092-1.84,3.662-1.84c0.711,0,1.336,0.158,1.875,0.475s1,0.768,1.383,1.354   l0.246-1.594h2.977v12.305c0,1.672-0.525,3.006-1.576,4.002s-2.494,1.494-4.33,1.494c-0.641,0-1.32-0.088-2.039-0.264   s-1.383-0.416-1.992-0.721l0.633-2.402c0.547,0.234,1.094,0.42,1.641,0.557s1.125,0.205,1.734,0.205   c0.836,0,1.461-0.254,1.875-0.762s0.621-1.215,0.621-2.121v-0.832c-0.375,0.477-0.816,0.84-1.324,1.09s-1.09,0.375-1.746,0.375   c-1.555,0-2.768-0.572-3.639-1.717s-1.307-2.65-1.307-4.518V134.414z M344.439,134.66c0,1.109,0.188,1.982,0.563,2.619   s0.984,0.955,1.828,0.955c0.523,0,0.967-0.096,1.33-0.287s0.654-0.471,0.873-0.838v-5.508c-0.219-0.383-0.51-0.68-0.873-0.891   s-0.799-0.316-1.307-0.316c-0.836,0-1.447,0.371-1.834,1.113s-0.58,1.711-0.58,2.906V134.66z"/>
	<path d="M360.588,140.895c-1.828,0-3.289-0.586-4.383-1.758s-1.641-2.66-1.641-4.465v-0.469c0-1.883,0.518-3.434,1.553-4.652   s2.424-1.824,4.166-1.816c1.711,0,3.039,0.516,3.984,1.547s1.418,2.426,1.418,4.184v1.863h-7.57l-0.023,0.07   c0.063,0.836,0.342,1.523,0.838,2.063s1.17,0.809,2.021,0.809c0.758,0,1.387-0.076,1.887-0.229s1.047-0.393,1.641-0.721   l0.926,2.109c-0.523,0.414-1.201,0.762-2.033,1.043S361.611,140.895,360.588,140.895z M360.283,130.371   c-0.633,0-1.133,0.242-1.5,0.727s-0.594,1.121-0.68,1.91l0.035,0.059h4.195v-0.305c0-0.727-0.17-1.307-0.51-1.74   S360.971,130.371,360.283,130.371z"/>
</g>
<polygon fill="#F0F0F0" points="319.447,682 388.503,682 388.503,812 292.416,812 292.416,708.972 "/>
<polygon fill="none" stroke="#000000" stroke-linecap="square" stroke-miterlimit="3" points="319.447,682 388.503,682 388.503,812   292.416,812 292.416,708.972 "/>
<g>
	<path d="M337.35,726.996l-1.406,0.176l-3.457,14.824h-3.176l-3.129-11.262h-0.07l-3.129,11.262h-3.176l-3.48-14.824l-1.395-0.176   v-2.063h6.281v2.063l-1.559,0.27l1.957,9.352l0.07,0.012l3.199-11.695h2.52l3.223,11.695l0.07-0.012l1.945-9.352l-1.559-0.27   v-2.063h6.27V726.996z"/>
	<path d="M344.51,742.242c-1.828,0-3.289-0.586-4.383-1.758s-1.641-2.66-1.641-4.465v-0.469c0-1.883,0.518-3.434,1.553-4.652   s2.424-1.824,4.166-1.816c1.711,0,3.039,0.516,3.984,1.547s1.418,2.426,1.418,4.184v1.863h-7.57l-0.023,0.07   c0.063,0.836,0.342,1.523,0.838,2.063s1.17,0.809,2.021,0.809c0.758,0,1.387-0.076,1.887-0.229s1.047-0.393,1.641-0.721   l0.926,2.109c-0.523,0.414-1.201,0.762-2.033,1.043S345.533,742.242,344.51,742.242z M344.205,731.719   c-0.633,0-1.133,0.242-1.5,0.727s-0.594,1.121-0.68,1.91l0.035,0.059h4.195v-0.305c0-0.727-0.17-1.307-0.51-1.74   S344.893,731.719,344.205,731.719z"/>
	<path d="M363.482,736.008c0,1.891-0.422,3.402-1.266,4.535s-2.063,1.699-3.656,1.699c-0.742,0-1.387-0.154-1.934-0.463   s-1.008-0.756-1.383-1.342l-0.246,1.559h-2.953v-15.867l-1.816-0.352v-2.063h5.227v6.949c0.367-0.508,0.807-0.898,1.318-1.172   s1.1-0.41,1.764-0.41c1.609,0,2.836,0.607,3.68,1.822s1.266,2.834,1.266,4.857V736.008z M360.072,735.762   c0-1.234-0.182-2.213-0.545-2.936s-0.982-1.084-1.857-1.084c-0.531,0-0.98,0.111-1.348,0.334s-0.656,0.541-0.867,0.955v5.355   c0.211,0.391,0.502,0.688,0.873,0.891s0.826,0.305,1.365,0.305c0.883,0,1.5-0.311,1.852-0.932s0.527-1.502,0.527-2.643V735.762z"/>
</g>
<g>
	<path d="M312.834,763.031v-2.063h4.969l0.164,1.477c0.375-0.547,0.824-0.969,1.348-1.266s1.133-0.445,1.828-0.445   c1.57,0,2.789,0.613,3.656,1.84s1.301,2.84,1.301,4.84v0.246c0,1.875-0.434,3.383-1.301,4.523s-2.078,1.711-3.633,1.711   c-0.664,0-1.254-0.123-1.77-0.369s-0.957-0.607-1.324-1.084v3.668l1.652,0.352v2.063h-6.715v-2.063l1.652-0.352v-12.727   L312.834,763.031z M322.678,767.414c0-1.195-0.199-2.164-0.598-2.906s-1.008-1.113-1.828-1.113c-0.516,0-0.955,0.105-1.318,0.316   s-0.65,0.512-0.861,0.902v5.555c0.211,0.359,0.498,0.633,0.861,0.82s0.811,0.281,1.342,0.281c0.828,0,1.436-0.324,1.822-0.973   s0.58-1.527,0.58-2.637V767.414z"/>
	<path d="M335.697,773.648c-0.094-0.211-0.176-0.428-0.246-0.65s-0.125-0.447-0.164-0.674c-0.406,0.469-0.9,0.848-1.482,1.137   s-1.248,0.434-1.998,0.434c-1.242,0-2.229-0.338-2.959-1.014s-1.096-1.596-1.096-2.76c0-1.188,0.477-2.105,1.43-2.754   s2.352-0.973,4.195-0.973h1.746v-1.242c0-0.609-0.176-1.082-0.527-1.418s-0.871-0.504-1.559-0.504   c-0.391,0-0.738,0.045-1.043,0.135s-0.551,0.197-0.738,0.322l-0.223,1.359h-2.578l0.012-2.813c0.625-0.422,1.342-0.777,2.15-1.066   s1.689-0.434,2.643-0.434c1.57,0,2.846,0.385,3.826,1.154s1.471,1.865,1.471,3.287v5.238c0,0.195,0.002,0.379,0.006,0.551   s0.018,0.336,0.041,0.492l1.043,0.141v2.051H335.697z M332.732,771.363c0.516,0,0.984-0.111,1.406-0.334s0.75-0.502,0.984-0.838   v-1.934h-1.746c-0.727,0-1.277,0.17-1.652,0.51s-0.563,0.748-0.563,1.225c0,0.43,0.139,0.766,0.416,1.008   S332.24,771.363,332.732,771.363z"/>
	<path d="M341.018,767.414c0-2,0.436-3.613,1.307-4.84s2.092-1.84,3.662-1.84c0.711,0,1.336,0.158,1.875,0.475s1,0.768,1.383,1.354   l0.246-1.594h2.977v12.305c0,1.672-0.525,3.006-1.576,4.002s-2.494,1.494-4.33,1.494c-0.641,0-1.32-0.088-2.039-0.264   s-1.383-0.416-1.992-0.721l0.633-2.402c0.547,0.234,1.094,0.42,1.641,0.557s1.125,0.205,1.734,0.205   c0.836,0,1.461-0.254,1.875-0.762s0.621-1.215,0.621-2.121v-0.832c-0.375,0.477-0.816,0.84-1.324,1.09s-1.09,0.375-1.746,0.375   c-1.555,0-2.768-0.572-3.639-1.717s-1.307-2.65-1.307-4.518V767.414z M344.439,767.66c0,1.109,0.188,1.982,0.563,2.619   s0.984,0.955,1.828,0.955c0.523,0,0.967-0.096,1.33-0.287s0.654-0.471,0.873-0.838v-5.508c-0.219-0.383-0.51-0.68-0.873-0.891   s-0.799-0.316-1.307-0.316c-0.836,0-1.447,0.371-1.834,1.113s-0.58,1.711-0.58,2.906V767.66z"/>
	<path d="M360.588,773.895c-1.828,0-3.289-0.586-4.383-1.758s-1.641-2.66-1.641-4.465v-0.469c0-1.883,0.518-3.434,1.553-4.652   s2.424-1.824,4.166-1.816c1.711,0,3.039,0.516,3.984,1.547s1.418,2.426,1.418,4.184v1.863h-7.57l-0.023,0.07   c0.063,0.836,0.342,1.523,0.838,2.063s1.17,0.809,2.021,0.809c0.758,0,1.387-0.076,1.887-0.229s1.047-0.393,1.641-0.721   l0.926,2.109c-0.523,0.414-1.201,0.762-2.033,1.043S361.611,773.895,360.588,773.895z M360.283,763.371   c-0.633,0-1.133,0.242-1.5,0.727s-0.594,1.121-0.68,1.91l0.035,0.059h4.195v-0.305c0-0.727-0.17-1.307-0.51-1.74   S360.971,763.371,360.283,763.371z"/>
</g>
<rect x="41.149" y="396.706" fill="#F0F0F0" width="241.267" height="68"/>
<rect x="41.149" y="396.706" fill="none" stroke="#000000" stroke-linecap="square" stroke-miterlimit="3" width="241.267" height="68"/>
<g>
	<path d="M100.976,422.876v4.547h-2.625l-0.141-1.91h-3.141v12.023l1.828,0.352v2.051h-7.078v-2.051l1.828-0.352v-12.023h-3.129   l-0.141,1.91h-2.613v-4.547H100.976z"/>
	<path d="M110.245,439.938c-0.094-0.211-0.176-0.428-0.246-0.65s-0.125-0.447-0.164-0.674c-0.406,0.469-0.9,0.848-1.482,1.137   s-1.248,0.434-1.998,0.434c-1.242,0-2.229-0.338-2.959-1.014s-1.096-1.596-1.096-2.76c0-1.188,0.477-2.105,1.43-2.754   s2.352-0.973,4.195-0.973h1.746v-1.242c0-0.609-0.176-1.082-0.527-1.418s-0.871-0.504-1.559-0.504   c-0.391,0-0.738,0.045-1.043,0.135s-0.551,0.197-0.738,0.322l-0.223,1.359h-2.578l0.012-2.813c0.625-0.422,1.342-0.777,2.15-1.066   s1.689-0.434,2.643-0.434c1.57,0,2.846,0.385,3.826,1.154s1.471,1.865,1.471,3.287v5.238c0,0.195,0.002,0.379,0.006,0.551   s0.018,0.336,0.041,0.492l1.043,0.141v2.051H110.245z M107.28,437.653c0.516,0,0.984-0.111,1.406-0.334s0.75-0.502,0.984-0.838   v-1.934h-1.746c-0.727,0-1.277,0.17-1.652,0.51s-0.563,0.748-0.563,1.225c0,0.43,0.139,0.766,0.416,1.008   S106.788,437.653,107.28,437.653z"/>
	<path d="M115.612,437.888l1.641-0.352v-7.863l-1.816-0.352v-2.063h5.004l0.152,1.852c0.297-0.656,0.68-1.168,1.148-1.535   s1.012-0.551,1.629-0.551c0.18,0,0.369,0.014,0.568,0.041s0.365,0.061,0.498,0.1l-0.363,3.117l-1.406-0.035   c-0.5,0-0.914,0.098-1.242,0.293s-0.578,0.473-0.75,0.832v6.164l1.641,0.352v2.051h-6.703V437.888z"/>
	<path d="M125.667,433.704c0-2,0.436-3.613,1.307-4.84s2.092-1.84,3.662-1.84c0.711,0,1.336,0.158,1.875,0.475s1,0.768,1.383,1.354   l0.246-1.594h2.977v12.305c0,1.672-0.525,3.006-1.576,4.002s-2.494,1.494-4.33,1.494c-0.641,0-1.32-0.088-2.039-0.264   s-1.383-0.416-1.992-0.721l0.633-2.402c0.547,0.234,1.094,0.42,1.641,0.557s1.125,0.205,1.734,0.205   c0.836,0,1.461-0.254,1.875-0.762s0.621-1.215,0.621-2.121v-0.832c-0.375,0.477-0.816,0.84-1.324,1.09s-1.09,0.375-1.746,0.375   c-1.555,0-2.768-0.572-3.639-1.717s-1.307-2.65-1.307-4.518V433.704z M129.089,433.95c0,1.109,0.188,1.982,0.563,2.619   s0.984,0.955,1.828,0.955c0.523,0,0.967-0.096,1.33-0.287s0.654-0.471,0.873-0.838v-5.508c-0.219-0.383-0.51-0.68-0.873-0.891   s-0.799-0.316-1.307-0.316c-0.836,0-1.447,0.371-1.834,1.113s-0.58,1.711-0.58,2.906V433.95z"/>
	<path d="M145.237,440.185c-1.828,0-3.289-0.586-4.383-1.758s-1.641-2.66-1.641-4.465v-0.469c0-1.883,0.518-3.434,1.553-4.652   s2.424-1.824,4.166-1.816c1.711,0,3.039,0.516,3.984,1.547s1.418,2.426,1.418,4.184v1.863h-7.57l-0.023,0.07   c0.063,0.836,0.342,1.523,0.838,2.063s1.17,0.809,2.021,0.809c0.758,0,1.387-0.076,1.887-0.229s1.047-0.393,1.641-0.721   l0.926,2.109c-0.523,0.414-1.201,0.762-2.033,1.043S146.261,440.185,145.237,440.185z M144.933,429.661   c-0.633,0-1.133,0.242-1.5,0.727s-0.594,1.121-0.68,1.91l0.035,0.059h4.195v-0.305c0-0.727-0.17-1.307-0.51-1.74   S145.62,429.661,144.933,429.661z"/>
	<path d="M157.003,424.153v3.105h2.227v2.402h-2.227v6.457c0,0.492,0.102,0.844,0.305,1.055s0.477,0.316,0.82,0.316   c0.234,0,0.439-0.01,0.615-0.029s0.373-0.053,0.592-0.1l0.293,2.473c-0.383,0.117-0.762,0.205-1.137,0.264   s-0.781,0.088-1.219,0.088c-1.18,0-2.088-0.324-2.725-0.973s-0.955-1.676-0.955-3.082v-6.469h-1.863v-2.402h1.863v-3.105H157.003z"/>
	<path d="M166.53,429.321v-2.063h4.969l0.164,1.477c0.375-0.547,0.824-0.969,1.348-1.266s1.133-0.445,1.828-0.445   c1.57,0,2.789,0.613,3.656,1.84s1.301,2.84,1.301,4.84v0.246c0,1.875-0.434,3.383-1.301,4.523s-2.078,1.711-3.633,1.711   c-0.664,0-1.254-0.123-1.77-0.369s-0.957-0.607-1.324-1.084v3.668l1.652,0.352v2.063h-6.715v-2.063l1.652-0.352v-12.727   L166.53,429.321z M176.374,433.704c0-1.195-0.199-2.164-0.598-2.906s-1.008-1.113-1.828-1.113c-0.516,0-0.955,0.105-1.318,0.316   s-0.65,0.512-0.861,0.902v5.555c0.211,0.359,0.498,0.633,0.861,0.82s0.811,0.281,1.342,0.281c0.828,0,1.436-0.324,1.822-0.973   s0.58-1.527,0.58-2.637V433.704z"/>
	<path d="M181.319,433.481c0-1.891,0.529-3.439,1.588-4.646s2.521-1.811,4.389-1.811c1.875,0,3.342,0.602,4.4,1.805   s1.588,2.754,1.588,4.652v0.246c0,1.906-0.529,3.459-1.588,4.658s-2.518,1.799-4.377,1.799c-1.883,0-3.354-0.6-4.412-1.799   s-1.588-2.752-1.588-4.658V433.481z M184.741,433.728c0,1.156,0.203,2.084,0.609,2.783s1.063,1.049,1.969,1.049   c0.883,0,1.529-0.352,1.939-1.055s0.615-1.629,0.615-2.777v-0.246c0-1.125-0.207-2.043-0.621-2.754s-1.066-1.066-1.957-1.066   s-1.539,0.355-1.945,1.066s-0.609,1.629-0.609,2.754V433.728z"/>
	<path d="M194.409,423.72v-2.063h5.25v15.879l1.652,0.352v2.051h-6.727v-2.051l1.652-0.352v-13.465L194.409,423.72z"/>
	<path d="M202.319,437.888l1.652-0.352v-7.863l-1.828-0.352v-2.063h5.25v10.277l1.641,0.352v2.051h-6.715V437.888z M207.394,424.224   h-3.422v-2.566h3.422V424.224z"/>
	<path d="M216.112,437.56c0.609,0,1.098-0.178,1.465-0.533s0.551-0.83,0.551-1.424h3.094l0.035,0.07   c0.031,1.281-0.449,2.354-1.441,3.217s-2.227,1.295-3.703,1.295c-1.891,0-3.348-0.598-4.371-1.793s-1.535-2.73-1.535-4.605v-0.352   c0-1.867,0.525-3.402,1.576-4.605s2.549-1.805,4.494-1.805c1.023,0,1.941,0.152,2.754,0.457s1.488,0.734,2.027,1.289l0.047,3.387   h-2.777l-0.563-1.98c-0.172-0.148-0.383-0.271-0.633-0.369s-0.535-0.146-0.855-0.146c-0.969,0-1.652,0.352-2.051,1.055   s-0.598,1.609-0.598,2.719v0.352c0,1.133,0.184,2.045,0.551,2.736S215.19,437.56,216.112,437.56z"/>
	<path d="M235.929,429.321l-1.184,0.176l-4.664,12.34c-0.367,0.914-0.857,1.68-1.471,2.297s-1.537,0.926-2.771,0.926   c-0.289,0-0.561-0.023-0.814-0.07s-0.553-0.113-0.896-0.199l0.398-2.496c0.109,0.016,0.223,0.031,0.34,0.047   s0.219,0.023,0.305,0.023c0.57,0,1.008-0.139,1.313-0.416s0.539-0.623,0.703-1.037l0.387-0.961l-4.02-10.441l-1.184-0.188v-2.063   h6.211v2.063l-1.418,0.234l1.734,5.063l0.176,0.914l0.07,0.012l2.004-5.988l-1.43-0.234v-2.063h6.211V429.321z"/>
</g>
<g>
	<path fill="none" d="M554.061,448.273v-0.268c0-0.792-0.213-1.455-0.637-1.988s-1.053-0.801-1.887-0.801   c-0.676,0-1.254,0.286-1.732,0.856c-0.479,0.571-0.772,1.287-0.882,2.148l0.021,0.052H554.061z"/>
	<polygon points="527.062,453.636 527.062,454.928 532.424,454.928 532.424,453.636 530.753,453.349 530.753,449.021    530.548,442.982 530.6,442.972 535.429,454.928 536.771,454.928 541.602,442.961 541.652,442.972 541.458,449.021 541.458,453.349    539.787,453.636 539.787,454.928 545.149,454.928 545.149,453.636 543.479,453.349 543.479,441.588 545.149,441.301    545.149,439.998 540.884,439.998 536.137,452.129 536.074,452.129 531.316,439.998 528.732,439.998 527.062,439.998    527.062,441.301 528.732,441.588 528.732,453.349  "/>
	<path d="M556.08,449.852v-1.261c0-1.504-0.385-2.707-1.153-3.609c-0.77-0.902-1.899-1.354-3.39-1.354   c-1.285,0-2.397,0.524-3.337,1.574c-0.94,1.049-1.41,2.363-1.41,3.942v0.451c0,1.641,0.456,2.976,1.369,4.004   c0.912,1.029,2.142,1.543,3.687,1.543c0.916,0,1.699-0.131,2.353-0.395c0.653-0.263,1.178-0.586,1.574-0.969l-0.79-1.313   c-0.375,0.342-0.822,0.61-1.338,0.805c-0.516,0.195-1.115,0.293-1.799,0.293c-0.938,0-1.665-0.344-2.185-1.031   c-0.52-0.687-0.79-1.563-0.81-2.63l0.03-0.052H556.08z M549.805,446.073c0.479-0.57,1.057-0.856,1.732-0.856   c0.834,0,1.463,0.268,1.887,0.801s0.637,1.196,0.637,1.988v0.268h-5.117l-0.021-0.052   C549.032,447.36,549.326,446.645,549.805,446.073z"/>
	<path d="M557.771,453.636v1.292h5.363v-1.292l-1.672-0.287v-6.511c0.268-0.485,0.624-0.868,1.072-1.148   c0.447-0.28,0.962-0.421,1.543-0.421c0.793,0,1.383,0.205,1.77,0.615c0.385,0.41,0.578,1.104,0.578,2.081v5.384l-1.671,0.287v1.292   h5.362v-1.292l-1.671-0.287v-5.425c0-1.462-0.328-2.544-0.984-3.245c-0.656-0.7-1.583-1.051-2.778-1.051   c-0.711,0-1.346,0.162-1.902,0.487c-0.558,0.324-1.021,0.781-1.39,1.369l-0.144-1.651h-3.477v1.302l1.672,0.287v7.927   L557.771,453.636z"/>
	<path d="M572.436,443.833h-1.271v1.302l1.271,0.287v4.953c0,1.634,0.338,2.837,1.015,3.609s1.616,1.158,2.819,1.158   c0.719,0,1.352-0.16,1.902-0.481s1-0.779,1.349-1.374l0.134,1.641h3.086v-1.292l-1.271-0.287v-9.516h-2.02h-1.487v1.302   l1.487,0.287v6.409c-0.24,0.533-0.594,0.945-1.063,1.235c-0.468,0.291-1.061,0.436-1.778,0.436c-0.738,0-1.282-0.222-1.63-0.666   c-0.35-0.444-0.523-1.258-0.523-2.44v-6.563H572.436z"/>
	<path d="M592.133,449.765c-0.684-0.516-1.727-0.924-3.127-1.226c-0.943-0.197-1.569-0.423-1.877-0.676s-0.461-0.599-0.461-1.036   c0-0.444,0.174-0.823,0.522-1.138s0.882-0.473,1.6-0.473c0.472,0,0.894,0.07,1.267,0.211c0.372,0.14,0.682,0.326,0.928,0.559   l0.328,1.333h1.518l-0.103-2.45c-0.444-0.391-1.001-0.694-1.671-0.913s-1.426-0.328-2.267-0.328c-1.23,0-2.229,0.317-2.999,0.954   c-0.77,0.635-1.154,1.404-1.154,2.307c0,0.861,0.342,1.545,1.025,2.051s1.699,0.906,3.046,1.199   c0.943,0.213,1.585,0.462,1.923,0.749s0.508,0.653,0.508,1.097c0,0.473-0.204,0.854-0.611,1.144   c-0.406,0.291-0.969,0.437-1.686,0.437c-0.418,0-0.826-0.048-1.227-0.145c-0.398-0.095-0.715-0.249-0.947-0.461l-0.38-1.486h-1.518   l0.011,2.532c0.525,0.369,1.124,0.651,1.794,0.846c0.67,0.195,1.425,0.292,2.267,0.292c1.285,0,2.325-0.304,3.121-0.912   c0.797-0.608,1.195-1.404,1.195-2.389C593.158,450.974,592.816,450.281,592.133,449.765z"/>
	<rect x="296.93" y="429.706" width="221.403" height="2"/>
	<polygon points="282.788,430.706 296.93,437.776 296.93,431.706 296.93,429.706 296.93,423.634  "/>
</g>
<polyline fill="none" stroke="#000000" stroke-width="2" stroke-miterlimit="3" points="292.416,119 161.416,119 161.416,251 "/>
<polygon points="154.345,239.262 161.416,253.404 168.487,239.262 "/>
<g>
	<path d="M84.417,176.089v-1.292l1.671-0.287v-11.761l-1.671-0.287v-1.303H95.88v3.589h-1.733l-0.164-1.999h-5.875v4.829h5.711   v1.589h-5.711v5.343h5.999l0.164-1.999h1.723v3.578H84.417z"/>
	<path d="M101.797,166.296l-1.333,0.205l2.287,6.316l0.185,0.801h0.062l0.195-0.801l2.215-6.316l-1.343-0.205v-1.302h4.286v1.302   l-0.913,0.154l-3.722,9.639h-1.528l-3.763-9.639l-0.913-0.154v-1.302h4.286V166.296z"/>
	<path d="M114.778,176.304c-1.545,0-2.774-0.514-3.686-1.543c-0.913-1.028-1.369-2.363-1.369-4.004v-0.451   c0-1.579,0.47-2.894,1.41-3.942c0.939-1.05,2.052-1.574,3.337-1.574c1.49,0,2.62,0.451,3.389,1.354   c0.769,0.902,1.153,2.105,1.153,3.609v1.261h-7.198l-0.031,0.052c0.021,1.066,0.291,1.943,0.81,2.63   c0.52,0.688,1.248,1.031,2.184,1.031c0.684,0,1.283-0.098,1.799-0.293c0.516-0.194,0.962-0.463,1.338-0.805l0.79,1.313   c-0.396,0.383-0.921,0.706-1.574,0.969C116.479,176.173,115.694,176.304,114.778,176.304z M114.471,166.378   c-0.677,0-1.254,0.286-1.733,0.856c-0.479,0.571-0.772,1.287-0.882,2.148l0.021,0.052h5.117v-0.268   c0-0.792-0.212-1.455-0.636-1.988S115.305,166.378,114.471,166.378z"/>
	<path d="M120.705,174.797l1.671-0.287v-7.927l-1.671-0.287v-1.302h3.476l0.144,1.651c0.369-0.588,0.832-1.045,1.389-1.369   c0.557-0.325,1.191-0.487,1.902-0.487c1.196,0,2.123,0.351,2.779,1.051c0.656,0.701,0.984,1.783,0.984,3.245v5.425l1.671,0.287   v1.292h-5.363v-1.292l1.671-0.287v-5.384c0-0.977-0.193-1.671-0.579-2.081c-0.387-0.41-0.976-0.615-1.769-0.615   c-0.581,0-1.096,0.141-1.543,0.421s-0.805,0.663-1.071,1.148v6.511l1.671,0.287v1.292h-5.363V174.797z"/>
	<path d="M138.044,162.317v2.677h2.102v1.497h-2.102v6.736c0,0.521,0.108,0.886,0.323,1.098c0.216,0.212,0.501,0.318,0.856,0.318   c0.178,0,0.377-0.016,0.6-0.047c0.222-0.03,0.409-0.063,0.559-0.098l0.277,1.385c-0.191,0.123-0.472,0.224-0.841,0.303   c-0.369,0.078-0.738,0.117-1.107,0.117c-0.82,0-1.473-0.247-1.958-0.743c-0.485-0.495-0.728-1.272-0.728-2.333v-6.736h-1.753   v-1.497h1.753v-2.677H138.044z"/>
	<path d="M150.698,168.48h-1.518l-0.328-1.333c-0.246-0.232-0.556-0.419-0.928-0.559c-0.373-0.141-0.794-0.211-1.266-0.211   c-0.718,0-1.251,0.158-1.6,0.473s-0.523,0.693-0.523,1.138c0,0.438,0.154,0.783,0.461,1.036s0.933,0.479,1.876,0.676   c1.401,0.302,2.444,0.71,3.127,1.226c0.684,0.517,1.025,1.209,1.025,2.077c0,0.984-0.398,1.78-1.195,2.389   s-1.837,0.912-3.122,0.912c-0.841,0-1.596-0.097-2.266-0.292c-0.67-0.194-1.268-0.477-1.794-0.846l-0.01-2.532h1.518l0.379,1.486   c0.232,0.212,0.549,0.366,0.948,0.461c0.4,0.097,0.809,0.145,1.226,0.145c0.718,0,1.28-0.146,1.687-0.437   c0.407-0.29,0.61-0.671,0.61-1.144c0-0.443-0.169-0.81-0.508-1.097c-0.338-0.287-0.979-0.536-1.922-0.749   c-1.347-0.293-2.362-0.693-3.045-1.199s-1.025-1.189-1.025-2.051c0-0.902,0.385-1.672,1.153-2.307c0.77-0.637,1.769-0.954,3-0.954   c0.841,0,1.596,0.109,2.266,0.328s1.227,0.522,1.671,0.913L150.698,168.48z"/>
</g>
<polyline fill="none" stroke="#000000" stroke-width="2" stroke-miterlimit="3" points="161.782,607.411 161.782,758.411   289.782,758.411 "/>
<polygon points="278.044,765.482 292.187,758.411 278.044,751.34 "/>
<g>
	<path d="M110.082,687.291c1.948,0,3.515,0.6,4.702,1.8c1.186,1.199,1.779,2.75,1.779,4.649v2.041c0,1.907-0.593,3.457-1.779,4.65   c-1.187,1.192-2.753,1.789-4.702,1.789h-6.255v-1.292l1.671-0.287v-11.761l-1.671-0.287v-1.303h1.671H110.082z M107.519,688.881   v11.761h2.563c1.381,0,2.469-0.454,3.266-1.364c0.796-0.908,1.194-2.074,1.194-3.496v-2.061c0-1.408-0.398-2.567-1.194-3.477   c-0.797-0.909-1.885-1.363-3.266-1.363H107.519z"/>
	<path d="M131.677,694.869c0,2.174-0.624,3.979-1.871,5.414c-1.248,1.436-2.863,2.152-4.845,2.152c-1.928,0-3.493-0.717-4.696-2.152   s-1.805-3.24-1.805-5.414v-0.216c0-2.167,0.602-3.972,1.805-5.414s2.769-2.163,4.696-2.163c1.982,0,3.597,0.721,4.845,2.163   c1.247,1.442,1.871,3.247,1.871,5.414V694.869z M129.657,694.633c0-1.736-0.416-3.153-1.246-4.25   c-0.831-1.098-1.981-1.646-3.451-1.646c-1.408,0-2.507,0.551-3.296,1.651c-0.79,1.101-1.185,2.516-1.185,4.245v0.236   c0,1.75,0.395,3.173,1.185,4.271c0.789,1.097,1.888,1.646,3.296,1.646c1.49,0,2.646-0.547,3.466-1.641s1.23-2.519,1.23-4.275   V694.633z"/>
	<path d="M147.786,690.265l-0.051-0.011l-4.83,11.967h-1.343l-4.83-11.956l-0.051,0.011l0.205,6.039v4.327l1.671,0.287v1.292h-5.363   v-1.292l1.671-0.287v-11.761l-1.671-0.287v-1.303h1.671h2.584l4.758,12.131h0.062l4.748-12.131h4.266v1.303l-1.671,0.287v11.761   l1.671,0.287v1.292h-5.363v-1.292l1.671-0.287v-4.327L147.786,690.265z"/>
</g>
<g>
	<path d="M13.542,728.624l1.671-0.287v-7.927l-1.671-0.287v-1.302h3.486l0.133,1.446c0.355-0.526,0.813-0.934,1.374-1.221   s1.21-0.431,1.948-0.431s1.372,0.171,1.902,0.513s0.928,0.854,1.195,1.538c0.349-0.629,0.81-1.128,1.384-1.497   s1.244-0.554,2.01-0.554c1.135,0,2.03,0.388,2.687,1.164c0.656,0.775,0.984,1.942,0.984,3.501v5.056l1.671,0.287v1.292h-5.373   v-1.292l1.671-0.287v-5.075c0-1.094-0.188-1.868-0.564-2.323c-0.376-0.454-0.933-0.682-1.671-0.682   c-0.704,0-1.27,0.248-1.697,0.743c-0.427,0.496-0.675,1.12-0.743,1.871v5.466l1.671,0.287v1.292h-5.363v-1.292l1.671-0.287v-5.075   c0-1.039-0.193-1.8-0.58-2.282c-0.386-0.481-0.945-0.723-1.676-0.723c-0.615,0-1.121,0.127-1.518,0.38s-0.701,0.608-0.913,1.066   v6.634l1.671,0.287v1.292h-5.363V728.624z"/>
	<path d="M33.793,724.266c0-1.641,0.444-2.992,1.333-4.055c0.889-1.063,2.095-1.595,3.62-1.595c1.531,0,2.743,0.53,3.635,1.589   c0.892,1.061,1.338,2.414,1.338,4.061v0.227c0,1.654-0.444,3.008-1.333,4.061s-2.095,1.578-3.62,1.578   c-1.538,0-2.751-0.527-3.64-1.584c-0.889-1.056-1.333-2.407-1.333-4.055V724.266z M35.813,724.492c0,1.176,0.248,2.146,0.744,2.912   c0.495,0.766,1.232,1.148,2.209,1.148c0.957,0,1.685-0.383,2.184-1.148s0.749-1.736,0.749-2.912v-0.227   c0-1.161-0.25-2.129-0.749-2.901s-1.234-1.159-2.205-1.159s-1.702,0.387-2.194,1.159s-0.738,1.74-0.738,2.901V724.492z"/>
	<path d="M53.04,728.594c-0.362,0.506-0.805,0.889-1.328,1.148c-0.522,0.259-1.129,0.389-1.82,0.389   c-1.354,0-2.412-0.49-3.173-1.471c-0.763-0.981-1.144-2.271-1.144-3.871v-0.215c0-1.785,0.381-3.224,1.144-4.317   c0.762-1.094,1.827-1.641,3.194-1.641c0.656,0,1.236,0.121,1.738,0.364c0.503,0.242,0.932,0.593,1.287,1.051v-4.521l-1.671-0.287   v-1.303h1.671h2.02v14.417l1.671,0.287v1.292h-3.425L53.04,728.594z M47.595,724.789c0,1.114,0.229,2.01,0.687,2.687   s1.166,1.015,2.123,1.015c0.602,0,1.107-0.136,1.518-0.41c0.41-0.272,0.749-0.659,1.015-1.158v-5.147   c-0.26-0.465-0.598-0.834-1.015-1.107s-0.916-0.41-1.497-0.41c-0.964,0-1.676,0.399-2.138,1.2   c-0.461,0.799-0.692,1.839-0.692,3.117V724.789z"/>
	<path d="M58.167,728.624l1.671-0.287v-7.927l-1.671-0.287v-1.302h3.691v9.516l1.671,0.287v1.292h-5.363V728.624z M61.858,715.98   h-2.02v-2.061h2.02V715.98z"/>
	<path d="M64.616,720.318v-1.497h1.733v-1.2c0-1.243,0.366-2.207,1.097-2.891s1.743-1.025,3.035-1.025   c0.451,0,0.902,0.055,1.354,0.164s0.971,0.263,1.559,0.461l-0.338,1.641c-0.362-0.144-0.749-0.267-1.159-0.369   s-0.831-0.154-1.261-0.154c-0.807,0-1.386,0.179-1.738,0.533c-0.352,0.356-0.528,0.902-0.528,1.641v1.2h6.327v9.516l1.671,0.287   v1.292h-5.363v-1.292l1.671-0.287v-8.019h-4.307v8.019l1.671,0.287v1.292h-5.363v-1.292l1.671-0.287v-8.019H64.616z"/>
	<path d="M82.755,728.553c0.67,0,1.259-0.207,1.769-0.621c0.509-0.413,0.764-0.921,0.764-1.522h1.815l0.021,0.062   c0.034,0.957-0.392,1.807-1.277,2.548c-0.885,0.742-1.916,1.112-3.091,1.112c-1.613,0-2.845-0.525-3.697-1.578   c-0.851-1.053-1.276-2.376-1.276-3.969v-0.431c0-1.579,0.427-2.896,1.282-3.953c0.854-1.056,2.085-1.584,3.691-1.584   c0.889,0,1.687,0.147,2.394,0.44c0.708,0.295,1.294,0.697,1.759,1.211L87,722.729h-1.61l-0.441-1.744   c-0.239-0.231-0.547-0.42-0.923-0.563s-0.8-0.216-1.271-0.216c-1.06,0-1.817,0.382-2.271,1.144   c-0.455,0.763-0.682,1.697-0.682,2.805v0.431c0,1.135,0.226,2.08,0.677,2.835C80.93,728.175,81.689,728.553,82.755,728.553z"/>
	<path d="M96.332,729.916c-0.062-0.301-0.109-0.57-0.144-0.811c-0.034-0.238-0.058-0.478-0.072-0.717   c-0.39,0.499-0.877,0.914-1.461,1.245c-0.585,0.332-1.208,0.497-1.872,0.497c-1.155,0-2.034-0.281-2.635-0.846   c-0.602-0.563-0.902-1.358-0.902-2.384c0-1.053,0.426-1.864,1.276-2.436c0.852-0.57,2.019-0.856,3.502-0.856h2.082v-1.291   c0-0.649-0.205-1.164-0.615-1.544c-0.41-0.379-0.981-0.569-1.712-0.569c-0.506,0-0.952,0.065-1.338,0.195   c-0.387,0.13-0.699,0.308-0.938,0.533l-0.215,1.169h-1.559v-2.153c0.506-0.403,1.118-0.727,1.835-0.969   c0.718-0.243,1.497-0.364,2.338-0.364c1.258,0,2.276,0.321,3.056,0.964s1.169,1.563,1.169,2.758v5.343   c0,0.144,0.001,0.284,0.005,0.421s0.012,0.273,0.026,0.41l0.82,0.112v1.292H96.332z M93.081,728.439c0.67,0,1.282-0.16,1.835-0.482   c0.554-0.32,0.95-0.707,1.189-1.158v-1.825h-2.153c-0.827,0-1.482,0.191-1.963,0.574c-0.482,0.383-0.723,0.848-0.723,1.395   c0,0.485,0.15,0.856,0.451,1.112C92.018,728.312,92.473,728.439,93.081,728.439z"/>
	<path d="M104.186,716.145v2.677h2.102v1.497h-2.102v6.736c0,0.521,0.108,0.886,0.323,1.098c0.216,0.212,0.501,0.318,0.856,0.318   c0.178,0,0.377-0.016,0.6-0.047c0.222-0.03,0.409-0.063,0.559-0.098l0.277,1.385c-0.191,0.123-0.472,0.224-0.841,0.303   c-0.369,0.078-0.738,0.117-1.107,0.117c-0.82,0-1.473-0.247-1.958-0.743c-0.485-0.495-0.728-1.272-0.728-2.333v-6.736h-1.753   v-1.497h1.753v-2.677H104.186z"/>
	<path d="M108.349,728.624l1.671-0.287v-7.927l-1.671-0.287v-1.302h3.691v9.516l1.671,0.287v1.292h-5.363V728.624z M112.041,715.98   h-2.02v-2.061h2.02V715.98z"/>
	<path d="M115.26,724.266c0-1.641,0.444-2.992,1.333-4.055c0.889-1.063,2.095-1.595,3.62-1.595c1.531,0,2.743,0.53,3.635,1.589   c0.892,1.061,1.338,2.414,1.338,4.061v0.227c0,1.654-0.444,3.008-1.333,4.061s-2.095,1.578-3.62,1.578   c-1.538,0-2.751-0.527-3.64-1.584c-0.889-1.056-1.333-2.407-1.333-4.055V724.266z M117.28,724.492c0,1.176,0.248,2.146,0.744,2.912   c0.495,0.766,1.232,1.148,2.209,1.148c0.957,0,1.685-0.383,2.184-1.148s0.749-1.736,0.749-2.912v-0.227   c0-1.161-0.25-2.129-0.749-2.901s-1.234-1.159-2.205-1.159s-1.702,0.387-2.194,1.159s-0.738,1.74-0.738,2.901V724.492z"/>
	<path d="M126.734,728.624l1.671-0.287v-7.927l-1.671-0.287v-1.302h3.476l0.144,1.651c0.369-0.588,0.832-1.045,1.389-1.369   c0.557-0.325,1.191-0.487,1.902-0.487c1.196,0,2.123,0.351,2.779,1.051c0.656,0.701,0.984,1.783,0.984,3.245v5.425l1.671,0.287   v1.292h-5.363v-1.292l1.671-0.287v-5.384c0-0.977-0.193-1.671-0.579-2.081c-0.387-0.41-0.976-0.615-1.769-0.615   c-0.581,0-1.096,0.141-1.543,0.421s-0.805,0.663-1.071,1.148v6.511l1.671,0.287v1.292h-5.363V728.624z"/>
	<path d="M149.037,722.308h-1.518l-0.328-1.333c-0.246-0.232-0.556-0.419-0.928-0.559c-0.373-0.141-0.794-0.211-1.266-0.211   c-0.718,0-1.251,0.158-1.6,0.473s-0.523,0.693-0.523,1.138c0,0.438,0.154,0.783,0.461,1.036s0.933,0.479,1.876,0.676   c1.401,0.302,2.444,0.71,3.127,1.226c0.684,0.517,1.025,1.209,1.025,2.077c0,0.984-0.398,1.78-1.195,2.389   s-1.837,0.912-3.122,0.912c-0.841,0-1.596-0.097-2.266-0.292c-0.67-0.194-1.268-0.477-1.794-0.846l-0.01-2.532h1.518l0.379,1.486   c0.232,0.212,0.549,0.366,0.948,0.461c0.4,0.097,0.809,0.145,1.226,0.145c0.718,0,1.28-0.146,1.687-0.437   c0.407-0.29,0.61-0.671,0.61-1.144c0-0.443-0.169-0.81-0.508-1.097c-0.338-0.287-0.979-0.536-1.922-0.749   c-1.347-0.293-2.362-0.693-3.045-1.199s-1.025-1.189-1.025-2.051c0-0.902,0.385-1.672,1.153-2.307c0.77-0.637,1.769-0.954,3-0.954   c0.841,0,1.596,0.109,2.266,0.328s1.227,0.522,1.671,0.913L149.037,722.308z"/>
</g>
<line fill="none" stroke="#000000" stroke-width="2" stroke-miterlimit="3" x1="161.416" y1="322.467" x2="161.416" y2="393.133"/>
<polygon points="154.345,381.396 161.416,395.538 168.487,381.396 "/>
<g>
	<path d="M91.194,351.934l-0.051-0.011l-4.83,11.967H84.97l-4.83-11.956l-0.051,0.011l0.205,6.039v4.327l1.671,0.287v1.292h-5.363   v-1.292l1.671-0.287V350.55l-1.671-0.287v-1.303h1.671h2.584l4.758,12.131h0.062l4.748-12.131h4.266v1.303l-1.671,0.287v11.761   l1.671,0.287v1.292h-5.363v-1.292L91,362.311v-4.327L91.194,351.934z"/>
	<path d="M101.387,364.104c-1.545,0-2.774-0.514-3.686-1.543c-0.913-1.028-1.369-2.363-1.369-4.004v-0.451   c0-1.579,0.47-2.894,1.41-3.942c0.939-1.05,2.052-1.574,3.337-1.574c1.49,0,2.62,0.451,3.389,1.354   c0.769,0.902,1.153,2.105,1.153,3.609v1.261h-7.198l-0.031,0.052c0.021,1.066,0.291,1.943,0.81,2.63   c0.52,0.688,1.248,1.031,2.184,1.031c0.684,0,1.283-0.098,1.799-0.293c0.516-0.194,0.962-0.463,1.338-0.805l0.79,1.313   c-0.396,0.383-0.921,0.706-1.574,0.969C103.087,363.974,102.303,364.104,101.387,364.104z M101.079,354.179   c-0.677,0-1.254,0.286-1.733,0.856c-0.479,0.571-0.772,1.287-0.882,2.148l0.021,0.052h5.117v-0.268   c0-0.792-0.212-1.455-0.636-1.988S101.913,354.179,101.079,354.179z"/>
	<path d="M111.138,350.118v2.677h2.102v1.497h-2.102v6.736c0,0.521,0.108,0.886,0.323,1.098c0.216,0.212,0.501,0.318,0.856,0.318   c0.178,0,0.377-0.016,0.6-0.047c0.222-0.03,0.409-0.063,0.559-0.098l0.277,1.385c-0.191,0.123-0.472,0.224-0.841,0.303   c-0.369,0.078-0.738,0.117-1.107,0.117c-0.82,0-1.473-0.247-1.958-0.743c-0.485-0.495-0.728-1.272-0.728-2.333v-6.736h-1.753   v-1.497h1.753v-2.677H111.138z"/>
	<path d="M115.301,354.097v-1.302h3.476l0.195,1.61c0.314-0.567,0.703-1.012,1.164-1.334c0.462-0.32,0.99-0.481,1.584-0.481   c0.157,0,0.319,0.012,0.487,0.036c0.167,0.023,0.296,0.05,0.385,0.076l-0.267,1.877l-1.148-0.062c-0.533,0-0.981,0.125-1.343,0.374   c-0.362,0.25-0.643,0.6-0.841,1.051v6.368l1.671,0.287v1.292h-5.363v-1.292l1.671-0.287v-7.927L115.301,354.097z"/>
	<path d="M123.986,362.598l1.671-0.287v-7.927l-1.671-0.287v-1.302h3.691v9.516l1.671,0.287v1.292h-5.363V362.598z M127.678,349.954   h-2.02v-2.061h2.02V349.954z"/>
	<path d="M135.871,362.526c0.67,0,1.259-0.207,1.769-0.621c0.509-0.413,0.764-0.921,0.764-1.522h1.815l0.021,0.062   c0.034,0.957-0.392,1.807-1.277,2.548c-0.885,0.742-1.916,1.112-3.091,1.112c-1.613,0-2.845-0.525-3.697-1.578   c-0.851-1.053-1.276-2.376-1.276-3.969v-0.431c0-1.579,0.427-2.896,1.282-3.953c0.854-1.056,2.085-1.584,3.691-1.584   c0.889,0,1.687,0.147,2.394,0.44c0.708,0.295,1.294,0.697,1.759,1.211l0.092,2.461h-1.61l-0.441-1.744   c-0.239-0.231-0.547-0.42-0.923-0.563s-0.8-0.216-1.271-0.216c-1.06,0-1.817,0.382-2.271,1.144   c-0.455,0.763-0.682,1.697-0.682,2.805v0.431c0,1.135,0.226,2.08,0.677,2.835C134.045,362.148,134.804,362.526,135.871,362.526z"/>
	<path d="M150.698,356.281h-1.518l-0.328-1.333c-0.246-0.232-0.556-0.419-0.928-0.559c-0.373-0.141-0.794-0.211-1.266-0.211   c-0.718,0-1.251,0.158-1.6,0.473s-0.523,0.693-0.523,1.138c0,0.438,0.154,0.783,0.461,1.036s0.933,0.479,1.876,0.676   c1.401,0.302,2.444,0.71,3.127,1.226c0.684,0.517,1.025,1.209,1.025,2.077c0,0.984-0.398,1.78-1.195,2.389   s-1.837,0.912-3.122,0.912c-0.841,0-1.596-0.097-2.266-0.292c-0.67-0.194-1.268-0.477-1.794-0.846l-0.01-2.532h1.518l0.379,1.486   c0.232,0.212,0.549,0.366,0.948,0.461c0.4,0.097,0.809,0.145,1.226,0.145c0.718,0,1.28-0.146,1.687-0.437   c0.407-0.29,0.61-0.671,0.61-1.144c0-0.443-0.169-0.81-0.508-1.097c-0.338-0.287-0.979-0.536-1.922-0.749   c-1.347-0.293-2.362-0.693-3.045-1.199s-1.025-1.189-1.025-2.051c0-0.902,0.385-1.672,1.153-2.307c0.77-0.637,1.769-0.954,3-0.954   c0.841,0,1.596,0.109,2.266,0.328s1.227,0.522,1.671,0.913L150.698,356.281z"/>
</g>
<line fill="none" stroke="#000000" stroke-width="2" stroke-miterlimit="3" x1="161.416" y1="464.705" x2="161.416" y2="535.372"/>
<polygon points="154.345,523.634 161.416,537.776 168.487,523.634 "/>
<g>
	<path d="M96.967,495.607h-1.528l-0.379-2.133c-0.308-0.26-0.718-0.475-1.23-0.646s-1.107-0.257-1.784-0.257   c-1.073,0-1.897,0.228-2.471,0.682c-0.574,0.455-0.861,1.048-0.861,1.779c0,0.649,0.292,1.191,0.877,1.625   c0.584,0.435,1.529,0.815,2.835,1.144c1.572,0.39,2.767,0.964,3.584,1.723c0.816,0.759,1.225,1.699,1.225,2.82   c0,1.203-0.491,2.17-1.471,2.901c-0.981,0.731-2.265,1.097-3.851,1.097c-1.148,0-2.169-0.188-3.061-0.563   c-0.893-0.376-1.619-0.868-2.179-1.477v-2.778h1.518l0.39,2.143c0.39,0.321,0.854,0.584,1.395,0.789s1.186,0.309,1.938,0.309   c1.019,0,1.823-0.216,2.415-0.646c0.591-0.431,0.887-1.016,0.887-1.754c0-0.683-0.256-1.256-0.769-1.717   c-0.513-0.462-1.418-0.85-2.717-1.164c-1.579-0.376-2.813-0.93-3.702-1.661s-1.333-1.651-1.333-2.759   c0-1.168,0.496-2.141,1.487-2.917c0.991-0.775,2.28-1.163,3.866-1.163c1.046,0,1.998,0.179,2.856,0.538   c0.857,0.358,1.546,0.794,2.066,1.308V495.607z"/>
	<path d="M104.114,504.765c0.67,0,1.259-0.207,1.769-0.621c0.509-0.413,0.764-0.921,0.764-1.522h1.815l0.021,0.062   c0.034,0.957-0.392,1.807-1.277,2.548c-0.885,0.742-1.916,1.112-3.091,1.112c-1.613,0-2.845-0.525-3.697-1.578   c-0.851-1.053-1.276-2.376-1.276-3.969v-0.431c0-1.579,0.427-2.896,1.282-3.953c0.854-1.056,2.085-1.584,3.691-1.584   c0.889,0,1.687,0.147,2.394,0.44c0.708,0.295,1.294,0.697,1.759,1.211l0.092,2.461h-1.61l-0.441-1.744   c-0.239-0.231-0.547-0.42-0.923-0.563s-0.8-0.216-1.271-0.216c-1.06,0-1.817,0.382-2.271,1.144   c-0.455,0.763-0.682,1.697-0.682,2.805v0.431c0,1.135,0.226,2.08,0.677,2.835C102.289,504.387,103.048,504.765,104.114,504.765z"/>
	<path d="M110.461,500.478c0-1.641,0.444-2.992,1.333-4.055c0.889-1.063,2.095-1.595,3.62-1.595c1.531,0,2.743,0.53,3.635,1.589   c0.892,1.061,1.338,2.414,1.338,4.061v0.227c0,1.654-0.444,3.008-1.333,4.061s-2.095,1.578-3.62,1.578   c-1.538,0-2.751-0.527-3.64-1.584c-0.889-1.056-1.333-2.407-1.333-4.055V500.478z M112.481,500.704   c0,1.176,0.248,2.146,0.744,2.912c0.495,0.766,1.232,1.148,2.209,1.148c0.957,0,1.685-0.383,2.184-1.148s0.749-1.736,0.749-2.912   v-0.227c0-1.161-0.25-2.129-0.749-2.901s-1.234-1.159-2.205-1.159s-1.702,0.387-2.194,1.159s-0.738,1.74-0.738,2.901V500.704z"/>
	<path d="M122.233,496.335v-1.302h3.476l0.195,1.61c0.314-0.567,0.703-1.012,1.164-1.334c0.462-0.32,0.99-0.481,1.584-0.481   c0.157,0,0.319,0.012,0.487,0.036c0.167,0.023,0.296,0.05,0.385,0.076l-0.267,1.877l-1.148-0.062c-0.533,0-0.981,0.125-1.343,0.374   c-0.362,0.25-0.643,0.6-0.841,1.051v6.368l1.671,0.287v1.292h-5.363v-1.292l1.671-0.287v-7.927L122.233,496.335z"/>
	<path d="M135.983,506.343c-1.545,0-2.774-0.514-3.686-1.543c-0.913-1.028-1.369-2.363-1.369-4.004v-0.451   c0-1.579,0.47-2.894,1.41-3.942c0.939-1.05,2.052-1.574,3.337-1.574c1.49,0,2.62,0.451,3.389,1.354   c0.769,0.902,1.153,2.105,1.153,3.609v1.261h-7.198l-0.031,0.052c0.021,1.066,0.291,1.943,0.81,2.63   c0.52,0.688,1.248,1.031,2.184,1.031c0.684,0,1.283-0.098,1.799-0.293c0.516-0.194,0.962-0.463,1.338-0.805l0.79,1.313   c-0.396,0.383-0.921,0.706-1.574,0.969C137.684,506.212,136.899,506.343,135.983,506.343z M135.676,496.417   c-0.677,0-1.254,0.286-1.733,0.856c-0.479,0.571-0.772,1.287-0.882,2.148l0.021,0.052h5.117v-0.268   c0-0.792-0.212-1.455-0.636-1.988S136.51,496.417,135.676,496.417z"/>
	<path d="M150.698,498.52h-1.518l-0.328-1.333c-0.246-0.232-0.556-0.419-0.928-0.559c-0.373-0.141-0.794-0.211-1.266-0.211   c-0.718,0-1.251,0.158-1.6,0.473s-0.523,0.693-0.523,1.138c0,0.438,0.154,0.783,0.461,1.036s0.933,0.479,1.876,0.676   c1.401,0.302,2.444,0.71,3.127,1.226c0.684,0.517,1.025,1.209,1.025,2.077c0,0.984-0.398,1.78-1.195,2.389   s-1.837,0.912-3.122,0.912c-0.841,0-1.596-0.097-2.266-0.292c-0.67-0.194-1.268-0.477-1.794-0.846l-0.01-2.532h1.518l0.379,1.486   c0.232,0.212,0.549,0.366,0.948,0.461c0.4,0.097,0.809,0.145,1.226,0.145c0.718,0,1.28-0.146,1.687-0.437   c0.407-0.29,0.61-0.671,0.61-1.144c0-0.443-0.169-0.81-0.508-1.097c-0.338-0.287-0.979-0.536-1.922-0.749   c-1.347-0.293-2.362-0.693-3.045-1.199s-1.025-1.189-1.025-2.051c0-0.902,0.385-1.672,1.153-2.307c0.77-0.637,1.769-0.954,3-0.954   c0.841,0,1.596,0.109,2.266,0.328s1.227,0.522,1.671,0.913L150.698,498.52z"/>
</g>
<polyline fill="none" stroke="#000000" stroke-width="2" stroke-miterlimit="3" points="388,119 519,119 519,251 "/>
<polygon points="511.929,239.262 519,253.404 526.071,239.262 "/>
<g>
	<path d="M533.982,161.159c1.949,0,3.516,0.6,4.702,1.8c1.186,1.199,1.778,2.75,1.778,4.649v2.041c0,1.907-0.593,3.457-1.778,4.65   c-1.187,1.192-2.753,1.789-4.702,1.789h-6.254v-1.292l1.671-0.287v-11.761l-1.671-0.287v-1.303h1.671H533.982z M531.42,162.749   v11.761h2.563c1.381,0,2.47-0.454,3.267-1.364c0.796-0.908,1.194-2.074,1.194-3.496v-2.061c0-1.408-0.398-2.567-1.194-3.477   c-0.797-0.909-1.886-1.363-3.267-1.363H531.42z"/>
	<path d="M555.578,168.737c0,2.174-0.625,3.979-1.871,5.414c-1.248,1.436-2.863,2.152-4.846,2.152c-1.928,0-3.493-0.717-4.696-2.152   s-1.805-3.24-1.805-5.414v-0.216c0-2.167,0.602-3.972,1.805-5.414s2.769-2.163,4.696-2.163c1.982,0,3.598,0.721,4.846,2.163   c1.246,1.442,1.871,3.247,1.871,5.414V168.737z M553.558,168.501c0-1.736-0.415-3.153-1.245-4.25   c-0.832-1.098-1.981-1.646-3.451-1.646c-1.408,0-2.508,0.551-3.297,1.651s-1.184,2.516-1.184,4.245v0.236   c0,1.75,0.395,3.173,1.184,4.271c0.789,1.097,1.889,1.646,3.297,1.646c1.49,0,2.646-0.547,3.466-1.641s1.23-2.519,1.23-4.275   V168.501z"/>
	<path d="M571.687,164.133l-0.052-0.011l-4.829,11.967h-1.343l-4.83-11.956l-0.051,0.011l0.205,6.039v4.327l1.671,0.287v1.292   h-5.362v-1.292l1.671-0.287v-11.761l-1.671-0.287v-1.303h1.671h2.584l4.758,12.131h0.062l4.748-12.131h4.266v1.303l-1.672,0.287   v11.761l1.672,0.287v1.292h-5.363v-1.292l1.672-0.287v-4.327L571.687,164.133z"/>
</g>
<polyline fill="none" stroke="#000000" stroke-width="2" stroke-miterlimit="3" points="519,321.8 519,576.467 285.333,576.467 "/>
<polygon points="297.071,569.396 282.929,576.467 297.071,583.538 "/>
</svg>